<mxfile host="app.diagrams.net" agent="Mozilla/5.0 (Windows NT 10.0; Win64; x64) AppleWebKit/537.36 (KHTML, like Gecko) Chrome/139.0.0.0 Safari/537.36" version="28.1.2">
  <diagram name="Page-1" id="38iq7cqJ-2t1s2Ds8JAe">
    <mxGraphModel dx="1042" dy="562" grid="1" gridSize="10" guides="1" tooltips="1" connect="1" arrows="1" fold="1" page="1" pageScale="1" pageWidth="850" pageHeight="1100" math="0" shadow="0">
      <root>
        <mxCell id="0" />
        <mxCell id="1" parent="0" />
        <mxCell id="iBKOn3mXy9IYe055b8Jy-1" value="" style="rounded=0;whiteSpace=wrap;html=1;rotation=-90;" parent="1" vertex="1">
          <mxGeometry x="358.75" y="191.25" width="155" height="82.5" as="geometry" />
        </mxCell>
        <mxCell id="iBKOn3mXy9IYe055b8Jy-2" value="ESP32" style="text;html=1;align=center;verticalAlign=middle;whiteSpace=wrap;rounded=0;" parent="1" vertex="1">
          <mxGeometry x="406.25" y="150" width="60" height="30" as="geometry" />
        </mxCell>
        <mxCell id="iBKOn3mXy9IYe055b8Jy-3" value="" style="ellipse;whiteSpace=wrap;html=1;" parent="1" vertex="1">
          <mxGeometry x="60" y="50" width="120" height="80" as="geometry" />
        </mxCell>
        <mxCell id="iBKOn3mXy9IYe055b8Jy-11" value="21" style="text;html=1;align=center;verticalAlign=middle;whiteSpace=wrap;rounded=0;" parent="1" vertex="1">
          <mxGeometry x="455" y="210" width="25" height="30" as="geometry" />
        </mxCell>
        <mxCell id="iBKOn3mXy9IYe055b8Jy-12" value="22" style="text;html=1;align=center;verticalAlign=middle;whiteSpace=wrap;rounded=0;" parent="1" vertex="1">
          <mxGeometry x="455" y="230" width="20" height="30" as="geometry" />
        </mxCell>
        <mxCell id="iBKOn3mXy9IYe055b8Jy-13" value="34" style="text;html=1;align=center;verticalAlign=middle;whiteSpace=wrap;rounded=0;" parent="1" vertex="1">
          <mxGeometry x="390" y="180" width="30" height="30" as="geometry" />
        </mxCell>
        <mxCell id="iBKOn3mXy9IYe055b8Jy-14" value="3V3" style="text;html=1;align=center;verticalAlign=middle;whiteSpace=wrap;rounded=0;" parent="1" vertex="1">
          <mxGeometry x="396.88" y="260" width="23.12" height="20" as="geometry" />
        </mxCell>
        <mxCell id="iBKOn3mXy9IYe055b8Jy-15" value="GND" style="text;html=1;align=center;verticalAlign=middle;whiteSpace=wrap;rounded=0;" parent="1" vertex="1">
          <mxGeometry x="393.44" y="273.75" width="30" height="30" as="geometry" />
        </mxCell>
        <mxCell id="iBKOn3mXy9IYe055b8Jy-18" value="" style="group" parent="1" vertex="1" connectable="0">
          <mxGeometry x="590" y="303.75" width="240" height="120" as="geometry" />
        </mxCell>
        <mxCell id="iBKOn3mXy9IYe055b8Jy-16" value="" style="rounded=0;whiteSpace=wrap;html=1;" parent="iBKOn3mXy9IYe055b8Jy-18" vertex="1">
          <mxGeometry width="240" height="120" as="geometry" />
        </mxCell>
        <mxCell id="iBKOn3mXy9IYe055b8Jy-17" value="&lt;font style=&quot;font-size: 24px;&quot;&gt;LCD&lt;/font&gt;&amp;nbsp;" style="text;html=1;align=center;verticalAlign=middle;whiteSpace=wrap;rounded=0;" parent="iBKOn3mXy9IYe055b8Jy-18" vertex="1">
          <mxGeometry x="90" y="45" width="60" height="30" as="geometry" />
        </mxCell>
        <mxCell id="iBKOn3mXy9IYe055b8Jy-19" value="GND&lt;div&gt;&lt;br&gt;&lt;/div&gt;&lt;div&gt;VCC&lt;/div&gt;&lt;div&gt;&lt;br&gt;&lt;/div&gt;&lt;div&gt;SDA&lt;/div&gt;&lt;div&gt;&lt;br&gt;&lt;/div&gt;&lt;div&gt;SCL&amp;nbsp;&lt;/div&gt;" style="text;html=1;align=center;verticalAlign=middle;whiteSpace=wrap;rounded=0;" parent="iBKOn3mXy9IYe055b8Jy-18" vertex="1">
          <mxGeometry y="30" width="60" height="70" as="geometry" />
        </mxCell>
        <mxCell id="iBKOn3mXy9IYe055b8Jy-21" value="" style="rounded=1;whiteSpace=wrap;html=1;" parent="1" vertex="1">
          <mxGeometry x="80" y="333.75" width="120" height="76.25" as="geometry" />
        </mxCell>
        <mxCell id="iBKOn3mXy9IYe055b8Jy-26" value="&lt;font style=&quot;font-size: 24px;&quot;&gt;+&lt;/font&gt;&lt;div&gt;&lt;font size=&quot;3&quot;&gt;-&lt;/font&gt;&lt;/div&gt;" style="text;html=1;align=center;verticalAlign=middle;whiteSpace=wrap;rounded=0;" parent="1" vertex="1">
          <mxGeometry x="160" y="350.31" width="60" height="43.12" as="geometry" />
        </mxCell>
        <mxCell id="iBKOn3mXy9IYe055b8Jy-27" value="Pulse Sensor" style="text;html=1;align=center;verticalAlign=middle;whiteSpace=wrap;rounded=0;" parent="1" vertex="1">
          <mxGeometry x="90" y="60" width="60" height="30" as="geometry" />
        </mxCell>
        <mxCell id="iBKOn3mXy9IYe055b8Jy-28" value="S&amp;nbsp; &amp;nbsp; &amp;nbsp; &amp;nbsp; &amp;nbsp;_" style="text;html=1;align=center;verticalAlign=middle;whiteSpace=wrap;rounded=0;" parent="1" vertex="1">
          <mxGeometry x="90" y="100" width="60" height="30" as="geometry" />
        </mxCell>
        <mxCell id="iBKOn3mXy9IYe055b8Jy-33" value="" style="group" parent="1" vertex="1" connectable="0">
          <mxGeometry x="650.02" y="30" width="129.99" height="110" as="geometry" />
        </mxCell>
        <mxCell id="iBKOn3mXy9IYe055b8Jy-5" value="" style="shape=loopLimit;whiteSpace=wrap;html=1;" parent="iBKOn3mXy9IYe055b8Jy-33" vertex="1">
          <mxGeometry width="109.99" height="110" as="geometry" />
        </mxCell>
        <mxCell id="iBKOn3mXy9IYe055b8Jy-9" value="Temp&amp;nbsp;&lt;div&gt;Sensor&lt;/div&gt;" style="text;html=1;align=center;verticalAlign=middle;whiteSpace=wrap;rounded=0;" parent="iBKOn3mXy9IYe055b8Jy-33" vertex="1">
          <mxGeometry x="20" y="50" width="60" height="30" as="geometry" />
        </mxCell>
        <mxCell id="iBKOn3mXy9IYe055b8Jy-29" value="" style="group" parent="iBKOn3mXy9IYe055b8Jy-33" vertex="1" connectable="0">
          <mxGeometry x="30" width="40" height="40" as="geometry" />
        </mxCell>
        <mxCell id="iBKOn3mXy9IYe055b8Jy-6" value="" style="ellipse;whiteSpace=wrap;html=1;aspect=fixed;" parent="iBKOn3mXy9IYe055b8Jy-29" vertex="1">
          <mxGeometry width="40" height="40" as="geometry" />
        </mxCell>
        <mxCell id="iBKOn3mXy9IYe055b8Jy-8" value="" style="ellipse;whiteSpace=wrap;html=1;aspect=fixed;" parent="iBKOn3mXy9IYe055b8Jy-29" vertex="1">
          <mxGeometry x="8.129999999999995" y="8.130000000000003" width="23.75" height="23.75" as="geometry" />
        </mxCell>
        <mxCell id="iBKOn3mXy9IYe055b8Jy-31" value="&lt;font style=&quot;font-size: 10px;&quot;&gt;VCC&amp;nbsp; &amp;nbsp;SDA&amp;nbsp; SCL GND&amp;nbsp;&lt;/font&gt;" style="text;html=1;align=center;verticalAlign=middle;whiteSpace=wrap;rounded=0;" parent="1" vertex="1">
          <mxGeometry x="630.01" y="110" width="150" height="30" as="geometry" />
        </mxCell>
        <mxCell id="iBKOn3mXy9IYe055b8Jy-35" value="" style="endArrow=none;html=1;rounded=0;entryX=0;entryY=0.75;entryDx=0;entryDy=0;exitX=0.25;exitY=1;exitDx=0;exitDy=0;" parent="1" source="iBKOn3mXy9IYe055b8Jy-28" target="iBKOn3mXy9IYe055b8Jy-13" edge="1">
          <mxGeometry width="50" height="50" relative="1" as="geometry">
            <mxPoint x="100" y="200" as="sourcePoint" />
            <mxPoint x="390" y="260" as="targetPoint" />
            <Array as="points">
              <mxPoint x="105" y="200" />
            </Array>
          </mxGeometry>
        </mxCell>
        <mxCell id="iBKOn3mXy9IYe055b8Jy-36" value="" style="endArrow=none;html=1;rounded=0;entryX=0;entryY=0;entryDx=0;entryDy=0;exitX=0.5;exitY=1;exitDx=0;exitDy=0;fillColor=#fff2cc;strokeColor=#d6b656;" parent="1" source="iBKOn3mXy9IYe055b8Jy-28" target="iBKOn3mXy9IYe055b8Jy-15" edge="1">
          <mxGeometry width="50" height="50" relative="1" as="geometry">
            <mxPoint x="340" y="310" as="sourcePoint" />
            <mxPoint x="390" y="260" as="targetPoint" />
            <Array as="points">
              <mxPoint x="120" y="270" />
            </Array>
          </mxGeometry>
        </mxCell>
        <mxCell id="iBKOn3mXy9IYe055b8Jy-38" value="" style="endArrow=none;html=1;rounded=0;entryX=0;entryY=0.5;entryDx=0;entryDy=0;exitX=0.872;exitY=0.929;exitDx=0;exitDy=0;exitPerimeter=0;" parent="1" source="iBKOn3mXy9IYe055b8Jy-28" target="iBKOn3mXy9IYe055b8Jy-15" edge="1">
          <mxGeometry width="50" height="50" relative="1" as="geometry">
            <mxPoint x="340" y="310" as="sourcePoint" />
            <mxPoint x="390" y="260" as="targetPoint" />
            <Array as="points">
              <mxPoint x="140" y="289" />
            </Array>
          </mxGeometry>
        </mxCell>
        <mxCell id="iBKOn3mXy9IYe055b8Jy-39" value="" style="endArrow=none;html=1;rounded=0;fillColor=#fff2cc;strokeColor=#d6b656;" parent="1" edge="1">
          <mxGeometry width="50" height="50" relative="1" as="geometry">
            <mxPoint x="280" y="270" as="sourcePoint" />
            <mxPoint x="670" y="141.25" as="targetPoint" />
            <Array as="points">
              <mxPoint x="280" y="140" />
            </Array>
          </mxGeometry>
        </mxCell>
        <mxCell id="iBKOn3mXy9IYe055b8Jy-40" value="" style="endArrow=none;html=1;rounded=0;entryX=0.422;entryY=1.059;entryDx=0;entryDy=0;entryPerimeter=0;fillColor=#f8cecc;strokeColor=#b85450;" parent="1" target="iBKOn3mXy9IYe055b8Jy-31" edge="1">
          <mxGeometry width="50" height="50" relative="1" as="geometry">
            <mxPoint x="480" y="230" as="sourcePoint" />
            <mxPoint x="530" y="180" as="targetPoint" />
            <Array as="points">
              <mxPoint x="693" y="230" />
            </Array>
          </mxGeometry>
        </mxCell>
        <mxCell id="iBKOn3mXy9IYe055b8Jy-41" value="" style="endArrow=none;html=1;rounded=0;entryX=0.634;entryY=1.047;entryDx=0;entryDy=0;entryPerimeter=0;exitX=0.42;exitY=0.963;exitDx=0;exitDy=0;exitPerimeter=0;fillColor=#d5e8d4;strokeColor=#82b366;" parent="1" source="iBKOn3mXy9IYe055b8Jy-1" target="iBKOn3mXy9IYe055b8Jy-31" edge="1">
          <mxGeometry width="50" height="50" relative="1" as="geometry">
            <mxPoint x="370" y="440" as="sourcePoint" />
            <mxPoint x="420" y="390" as="targetPoint" />
            <Array as="points">
              <mxPoint x="725" y="245" />
            </Array>
          </mxGeometry>
        </mxCell>
        <mxCell id="iBKOn3mXy9IYe055b8Jy-42" value="" style="endArrow=none;html=1;rounded=0;" parent="1" edge="1">
          <mxGeometry width="50" height="50" relative="1" as="geometry">
            <mxPoint x="370" y="290" as="sourcePoint" />
            <mxPoint x="750" y="140" as="targetPoint" />
            <Array as="points">
              <mxPoint x="370" y="340" />
              <mxPoint x="500" y="340" />
              <mxPoint x="500" y="290" />
              <mxPoint x="750" y="290" />
            </Array>
          </mxGeometry>
        </mxCell>
        <mxCell id="iBKOn3mXy9IYe055b8Jy-43" value="" style="endArrow=none;html=1;rounded=0;" parent="1" edge="1">
          <mxGeometry width="50" height="50" relative="1" as="geometry">
            <mxPoint x="540" y="290" as="sourcePoint" />
            <mxPoint x="590" y="320" as="targetPoint" />
            <Array as="points">
              <mxPoint x="540" y="320" />
            </Array>
          </mxGeometry>
        </mxCell>
        <mxCell id="iBKOn3mXy9IYe055b8Jy-44" value="" style="endArrow=none;html=1;rounded=0;fillColor=#fff2cc;strokeColor=#d6b656;" parent="1" edge="1">
          <mxGeometry width="50" height="50" relative="1" as="geometry">
            <mxPoint x="594" y="360" as="sourcePoint" />
            <mxPoint x="540" y="140" as="targetPoint" />
            <Array as="points">
              <mxPoint x="540" y="360" />
            </Array>
          </mxGeometry>
        </mxCell>
        <mxCell id="iBKOn3mXy9IYe055b8Jy-46" value="" style="endArrow=none;html=1;rounded=0;entryX=0;entryY=0.75;entryDx=0;entryDy=0;fillColor=#f8cecc;strokeColor=#b85450;" parent="1" target="iBKOn3mXy9IYe055b8Jy-19" edge="1">
          <mxGeometry width="50" height="50" relative="1" as="geometry">
            <mxPoint x="520" y="230" as="sourcePoint" />
            <mxPoint x="560" y="290" as="targetPoint" />
            <Array as="points">
              <mxPoint x="520" y="386" />
            </Array>
          </mxGeometry>
        </mxCell>
        <mxCell id="iBKOn3mXy9IYe055b8Jy-47" value="" style="endArrow=none;html=1;rounded=0;fillColor=#d5e8d4;strokeColor=#82b366;" parent="1" edge="1">
          <mxGeometry width="50" height="50" relative="1" as="geometry">
            <mxPoint x="490" y="240" as="sourcePoint" />
            <mxPoint x="590" y="410" as="targetPoint" />
            <Array as="points">
              <mxPoint x="490" y="410" />
            </Array>
          </mxGeometry>
        </mxCell>
        <mxCell id="iBKOn3mXy9IYe055b8Jy-48" value="" style="endArrow=none;html=1;rounded=0;" parent="1" edge="1">
          <mxGeometry width="50" height="50" relative="1" as="geometry">
            <mxPoint x="200" y="388.75" as="sourcePoint" />
            <mxPoint x="370" y="340" as="targetPoint" />
            <Array as="points">
              <mxPoint x="370" y="389" />
            </Array>
          </mxGeometry>
        </mxCell>
        <mxCell id="iBKOn3mXy9IYe055b8Jy-49" value="" style="endArrow=none;html=1;rounded=0;fillColor=#6d8764;strokeColor=#3A5431;" parent="1" target="iBKOn3mXy9IYe055b8Jy-64" edge="1">
          <mxGeometry width="50" height="50" relative="1" as="geometry">
            <mxPoint x="180" y="350" as="sourcePoint" />
            <mxPoint x="39.99999999999898" y="80" as="targetPoint" />
            <Array as="points">
              <mxPoint x="180" y="310" />
              <mxPoint x="40" y="310" />
              <mxPoint x="40" y="70" />
            </Array>
          </mxGeometry>
        </mxCell>
        <mxCell id="iBKOn3mXy9IYe055b8Jy-50" value="" style="endArrow=none;html=1;rounded=0;exitX=1;exitY=0.5;exitDx=0;exitDy=0;fillColor=#6d8764;strokeColor=#3A5431;" parent="1" source="iBKOn3mXy9IYe055b8Jy-3" edge="1">
          <mxGeometry width="50" height="50" relative="1" as="geometry">
            <mxPoint x="180" y="115" as="sourcePoint" />
            <mxPoint x="650" y="90" as="targetPoint" />
          </mxGeometry>
        </mxCell>
        <mxCell id="iBKOn3mXy9IYe055b8Jy-51" value="" style="endArrow=none;html=1;rounded=0;exitX=1.012;exitY=0.58;exitDx=0;exitDy=0;exitPerimeter=0;fillColor=#6d8764;strokeColor=#3A5431;" parent="1" source="iBKOn3mXy9IYe055b8Jy-5" edge="1">
          <mxGeometry width="50" height="50" relative="1" as="geometry">
            <mxPoint x="760" y="115" as="sourcePoint" />
            <mxPoint x="840" y="30" as="targetPoint" />
            <Array as="points">
              <mxPoint x="840" y="94" />
            </Array>
          </mxGeometry>
        </mxCell>
        <mxCell id="iBKOn3mXy9IYe055b8Jy-52" value="" style="endArrow=none;html=1;rounded=0;" parent="1" edge="1">
          <mxGeometry width="50" height="50" relative="1" as="geometry">
            <mxPoint x="450" y="370" as="sourcePoint" />
            <mxPoint x="450" y="340" as="targetPoint" />
            <Array as="points">
              <mxPoint x="450" y="350" />
            </Array>
          </mxGeometry>
        </mxCell>
        <mxCell id="iBKOn3mXy9IYe055b8Jy-53" value="" style="verticalLabelPosition=bottom;verticalAlign=top;html=1;shape=mxgraph.basic.patternFillRect;fillStyle=diag;step=5;fillStrokeWidth=0.2;fillStrokeColor=#dddddd;" parent="1" vertex="1">
          <mxGeometry x="430" y="350" width="40" height="10" as="geometry" />
        </mxCell>
        <mxCell id="iBKOn3mXy9IYe055b8Jy-54" value="" style="verticalLabelPosition=bottom;verticalAlign=top;html=1;shape=mxgraph.basic.patternFillRect;fillStyle=diag;step=5;fillStrokeWidth=0.2;fillStrokeColor=#dddddd;" parent="1" vertex="1">
          <mxGeometry x="437.5" y="360.63" width="25" height="6.25" as="geometry" />
        </mxCell>
        <mxCell id="iBKOn3mXy9IYe055b8Jy-60" value="" style="whiteSpace=wrap;html=1;aspect=fixed;" parent="1" vertex="1">
          <mxGeometry x="443.44" y="366.88" width="13.12" height="13.12" as="geometry" />
        </mxCell>
        <mxCell id="iBKOn3mXy9IYe055b8Jy-62" value="Battery" style="text;html=1;align=center;verticalAlign=middle;whiteSpace=wrap;rounded=0;" parent="1" vertex="1">
          <mxGeometry x="90" y="356.88" width="60" height="30" as="geometry" />
        </mxCell>
        <mxCell id="iBKOn3mXy9IYe055b8Jy-63" value="5V" style="text;html=1;align=center;verticalAlign=middle;whiteSpace=wrap;rounded=0;" parent="1" vertex="1">
          <mxGeometry x="810" y="40" width="40" height="30" as="geometry" />
        </mxCell>
        <mxCell id="iBKOn3mXy9IYe055b8Jy-64" value="5V" style="text;html=1;align=center;verticalAlign=middle;whiteSpace=wrap;rounded=0;" parent="1" vertex="1">
          <mxGeometry x="10" y="20" width="60" height="20" as="geometry" />
        </mxCell>
        <mxCell id="iBKOn3mXy9IYe055b8Jy-65" value="" style="endArrow=none;html=1;rounded=0;exitX=0.5;exitY=1;exitDx=0;exitDy=0;" parent="1" source="iBKOn3mXy9IYe055b8Jy-64" edge="1">
          <mxGeometry width="50" height="50" relative="1" as="geometry">
            <mxPoint x="375" y="60" as="sourcePoint" />
            <mxPoint x="840" y="30" as="targetPoint" />
          </mxGeometry>
        </mxCell>
      </root>
    </mxGraphModel>
  </diagram>
</mxfile>
